<svg xmlns="http://www.w3.org/2000/svg" viewBox="0 0 58 58" role="img" aria-label="ARIANNA favicon">
  <rect width="58" height="58" rx="14" fill="#0f1e2b"/>
  <path fill="#3fbab7" d="M56.8 56.5V.8H1v55.7h20.5v-3.1H4.1V3.9h49.6v49.5H39.4v-5.6h8.7V9.5H9.7v38.3h13.2c2.4 0 3.9.5 4.7 1.5 1 1.5.8 4.3-.7 8.3-1 2.8-.5 5.7 1.2 7.4 1 .9 2.3 1.4 3.8 1.4s2.8-.4 3.7-.8l-1.2-2.9c-1.9.7-3.4.7-4.3 0-.9-.8-1-2.5-.4-4.1 1.9-5.2 2-8.8.3-11.2-1.3-1.9-3.7-2.8-7.2-2.8H12.8V12.6H45v32.2h-8.7v11.8h20.5Z"/>
  <path fill="#3fbab7" d="M36.3 21.3v14.8H21.5V30h9.2v-3.1H18.4v12.3h21V18.2h-21v3.1h17.9Z"/>
</svg>
