<svg xmlns="http://www.w3.org/2000/svg" xmlns:xlink="http://www.w3.org/1999/xlink" width="1371px" height="210px" viewBox="0 0 1371 210" version="1.1">
    <title>Orthofix Logo Copy</title>
    <g id="06-Symbols" stroke="none" stroke-width="1" fill="none" fill-rule="evenodd">
        <g id="Orthofix-Logo-Copy" fill="#FFFFFF">
            <g id="TYPE" transform="translate(245.252842, 42.329351)">
                <path d="M1107.5197,10.8326295 L1107.5197,16.6307732 L1110.27735,16.6307732 C1113.27365,16.6307732 1114.67457,15.888328 1114.67457,13.8421843 C1114.67457,11.6988156 1113.27365,10.8326295 1110.18896,10.8326295 L1107.5197,10.8326295 Z M1118.03325,13.4974776 C1118.03325,15.972295 1116.59255,17.6869899 1114.06912,18.2217273 L1117.94044,26.1720783 L1114.28567,26.1720783 L1110.75022,18.7299487 L1107.5197,18.7299487 L1107.5197,26.1720783 L1104.2273,26.1720783 L1104.2273,8.68926082 L1110.80325,8.68926082 C1115.63356,8.68926082 1118.03325,10.3420853 1118.03325,13.4974776 L1118.03325,13.4974776 Z M1119.92472,8.31361888 C1117.34384,5.70180262 1114.06912,4.32739507 1110.43203,4.32739507 C1106.83028,4.32739507 1103.55557,5.66644808 1101.12494,8.12358826 C1098.51755,10.797275 1097.09011,14.2266648 1097.09011,17.7356024 C1097.09011,21.2401207 1098.49103,24.563447 1100.97911,27.1089735 C1103.52021,29.6854352 1106.87006,31.0951973 1110.27735,31.0951973 C1113.91445,31.0951973 1117.18916,29.738467 1119.83191,27.1620053 C1122.32883,24.7181231 1123.70765,21.4124741 1123.70765,17.854924 C1123.70765,14.1559558 1122.38628,10.797275 1119.92472,8.31361888 L1119.92472,8.31361888 Z M1121.3168,6.89501817 C1124.12307,9.77199345 1125.71402,13.6212184 1125.71402,17.7356024 C1125.71402,21.9825659 1124.16726,25.7389853 1121.28145,28.5673481 C1118.25864,31.523871 1114.36964,33.1457603 1110.38783,33.1457603 C1106.27787,33.1457603 1102.49935,31.523871 1099.52073,28.5364128 C1096.66143,25.5843092 1095.06164,21.8234705 1095.06164,17.7356024 C1095.06164,13.656573 1096.73656,9.71454233 1099.71076,6.69172959 C1102.53471,3.81917363 1106.24251,2.32102522 1110.38783,2.32102522 C1114.53315,2.32102522 1118.3868,3.90314065 1121.3168,6.89501817 L1121.3168,6.89501817 Z" id="Fill-6"/>
                <path d="M203.738904,51.364836 C203.756581,51.5371894 239.053665,51.4708996 239.053665,51.4708996 L245.289321,51.4708996 C267.598033,51.4708996 275.385261,48.143154 275.385261,36.8783154 C275.385261,30.0725674 275.844478,22.6215992 245.289321,22.6215992 L239.053665,22.6215992 C204.008482,23.8015568 204.017321,48.3994744 203.738904,51.364836 M239.053665,2.15132345 L253.107093,2.15132345 C290.556384,2.15132345 309.267771,11.8340467 309.267771,36.5512859 C309.267771,52.4210528 299.010537,64.7863013 277.170273,68.4454957 L316.639192,116.169699 L278.946838,116.169699 L243.521594,71.6097266 L203.747743,71.6097266 L203.641679,116.134344 L169.582004,116.098989 C169.582004,116.098989 169.710164,60.0929868 169.710164,60.0355357 C171.03154,37.5279549 168.972138,1.7977781 239.053665,2.15132345" id="Fill-8"/>
                <path d="M80.0117318,99.0722454 C111.676137,99.0722454 123.709937,83.0610604 123.709937,59.4530698 C123.709937,42.7922452 119.02988,19.6615407 80.0117318,19.6615407 C50.3757929,19.6615407 36.5477505,34.5546385 36.5477505,58.9802028 C36.5477505,81.0016588 46.5795997,99.0722454 80.0117318,99.0722454 M160.469815,59.3160709 C160.469815,94.4938332 140.644759,118.57911 80.2459556,118.57911 C24.964721,118.57911 0,98.6214751 0,58.9802028 C0,13.1430483 35.0009896,0 79.790766,0 C122.59185,0 160.469815,10.9157127 160.469815,59.3160709" id="Fill-10"/>
                <polygon id="Fill-12" points="363.681936 116.221846 363.681936 22.3467176 312.426699 22.3467176 312.426699 2.54375879 450.380094 2.54375879 450.380094 22.3467176 398.705022 22.3467176 398.705022 116.221846"/>
                <polygon id="Fill-14" points="459.886929 2.20479718 493.548865 2.20479718 493.548865 48.3468845 555.29998 48.3468845 555.29998 2.20479718 588.723273 2.20479718 588.723273 116.223172 555.29998 116.223172 555.29998 68.5033888 493.548865 68.5033888 493.548865 116.223172 459.886929 116.223172"/>
                <path d="M677.600597,99.0722454 C709.247325,99.0722454 721.281124,83.0610604 721.281124,59.4530698 C721.281124,42.7922452 716.614326,19.6615407 677.600597,19.6615407 C647.94698,19.6615407 634.132196,34.5546385 634.132196,58.9802028 C634.132196,81.0016588 644.168465,99.0722454 677.600597,99.0722454 M758.076357,59.3160709 C758.076357,94.4938332 738.229205,118.57911 677.825982,118.57911 C622.518231,118.57911 597.562349,98.6214751 597.562349,58.9802028 C597.562349,13.1430483 632.567758,0 677.375211,0 C720.176295,0 758.076357,10.9157127 758.076357,59.3160709" id="Fill-16"/>
                <path d="M767.098834,116.221846 L767.098834,63.8838768 C767.098834,7.59945728 795.174754,2.20347139 846.010156,2.20347139 L897.265393,2.20347139 L897.265393,22.0373655 L842.88128,22.0373655 C816.360959,22.0373655 802.988106,28.2199898 801.189444,49.9276742 L878.761713,49.9276742 L878.761713,69.4389581 L801.189444,69.4389581 L801.189444,116.221846 L767.098834,116.221846 Z" id="Fill-18"/>
                <polygon id="Fill-20" points="906.544632 116.221846 941.775426 116.221846 941.775426 2.20347139 906.544632 2.20347139"/>
                <polygon id="Fill-22" points="948.953281 116.221846 1004.68529 59.3187225 950.734266 2.20347139 989.964541 2.20347139 1022.94148 38.5214174 1055.72398 2.20347139 1094.49906 2.20347139 1043.00076 57.7012525 1098.27316 116.221846 1057.94689 116.221846 1024.28938 76.5761549 988.625488 116.221846"/>
            </g>
            <g id="ICON">
                <path d="M120.909617,173.774418 C101.986103,162.191388 85.5020506,142.163044 76.1375182,116.654747 C66.7376312,91.0536447 66.3310541,64.9089662 73.2738009,43.6034396 L4.75671222,69.3238637 C-2.18603457,90.6293903 -1.7750381,116.76965 7.62042955,142.375171 C16.984962,167.879049 33.4645946,187.911812 52.3925287,199.494842 L120.909617,173.774418 Z" id="Fill-1"/>
                <path d="M165.563279,184.279576 C203.405889,170.080311 219.235882,118.117983 200.917814,68.2327344 C182.604165,18.3430663 137.076362,-10.5902012 99.2425906,3.6134832 L30.7210827,29.3339073 C68.5636929,15.1258036 114.087076,44.0590711 132.400725,93.9487392 C150.714374,143.838407 134.8888,195.791896 97.0506094,210 L165.563279,184.279576 Z" id="Fill-3"/>
            </g>
        </g>
    </g>
</svg>